<svg id="visual" viewBox="0 0 900 900" width="900" height="900" xmlns="http://www.w3.org/2000/svg" xmlns:xlink="http://www.w3.org/1999/xlink" version="1.1"><rect x="0" y="0" width="900" height="900" fill="#1c1c1c"></rect><path d="M0 798L18.8 800.7C37.7 803.3 75.3 808.7 112.8 783.2C150.3 757.7 187.7 701.3 225.2 695.3C262.7 689.3 300.3 733.7 337.8 746.2C375.3 758.7 412.7 739.3 450.2 713.5C487.7 687.7 525.3 655.3 562.8 653.3C600.3 651.3 637.7 679.7 675.2 701.7C712.7 723.7 750.3 739.3 787.8 724.3C825.3 709.3 862.7 663.7 881.3 640.8L900 618L900 901L881.3 901C862.7 901 825.3 901 787.8 901C750.3 901 712.7 901 675.2 901C637.7 901 600.3 901 562.8 901C525.3 901 487.7 901 450.2 901C412.7 901 375.3 901 337.8 901C300.3 901 262.7 901 225.2 901C187.7 901 150.3 901 112.8 901C75.3 901 37.7 901 18.8 901L0 901Z" fill="#ef0000" stroke-linecap="round" stroke-linejoin="miter"></path></svg>