<svg id="visual" viewBox="0 0 900 900" width="900" height="900" xmlns="http://www.w3.org/2000/svg" xmlns:xlink="http://www.w3.org/1999/xlink" version="1.1"><rect x="0" y="0" width="900" height="900" fill="#001220"></rect><defs><linearGradient id="grad1_0" x1="0%" y1="0%" x2="100%" y2="100%"><stop offset="30%" stop-color="#001220" stop-opacity="1"></stop><stop offset="70%" stop-color="#001220" stop-opacity="1"></stop></linearGradient></defs><defs><linearGradient id="grad2_0" x1="0%" y1="0%" x2="100%" y2="100%"><stop offset="30%" stop-color="#001220" stop-opacity="1"></stop><stop offset="70%" stop-color="#001220" stop-opacity="1"></stop></linearGradient></defs><g transform="translate(900, 0)"><path d="M0 604.6C-49.7 550.1 -99.4 495.7 -154.8 476.5C-210.2 457.3 -271.3 473.3 -335.6 461.9C-399.9 450.6 -467.4 412 -489.1 355.4C-510.8 298.7 -486.7 224.1 -498.4 161.9C-510 99.7 -557.3 49.9 -604.6 0L0 0Z" fill="#FBAE3C"></path></g><g transform="translate(0, 900)"><path d="M0 -604.6C75.5 -615.7 151.1 -626.8 186.8 -575C222.6 -523.1 218.6 -408.3 266.9 -367.3C315.1 -326.3 415.5 -359 461.9 -335.6C508.4 -312.3 500.7 -232.8 515.5 -167.5C530.2 -102.2 567.4 -51.1 604.6 0L0 0Z" fill="#FBAE3C"></path></g></svg>